<?xml version="1.0" standalone="no"?>
<svg xmlns="http://www.w3.org/2000/svg" version="1.1" width="1122" height="1122">
	<!-- Created with https://api.qrserver.com (QR Code API, see goQR.me/api for information) -->
	<title>QR Code</title>
	<desc>https://www.pbelcitydurgotsav.com/</desc>
	<rect style="fill:rgb(255, 255, 255);fill-opacity:1" x="0" y="0" width="1122" height="1122" />
	<g id="elements">
		<path style="fill:rgb(0, 0, 0)" d="M 68,68 l 34,0 0,34 -34,0 z M 102,68 l 34,0 0,34 -34,0 z M 136,68 l 34,0 0,34 -34,0 z M 170,68 l 34,0 0,34 -34,0 z M 204,68 l 34,0 0,34 -34,0 z M 238,68 l 34,0 0,34 -34,0 z M 272,68 l 34,0 0,34 -34,0 z M 408,68 l 34,0 0,34 -34,0 z M 476,68 l 34,0 0,34 -34,0 z M 510,68 l 34,0 0,34 -34,0 z M 544,68 l 34,0 0,34 -34,0 z M 578,68 l 34,0 0,34 -34,0 z M 714,68 l 34,0 0,34 -34,0 z M 748,68 l 34,0 0,34 -34,0 z M 816,68 l 34,0 0,34 -34,0 z M 850,68 l 34,0 0,34 -34,0 z M 884,68 l 34,0 0,34 -34,0 z M 918,68 l 34,0 0,34 -34,0 z M 952,68 l 34,0 0,34 -34,0 z M 986,68 l 34,0 0,34 -34,0 z M 1020,68 l 34,0 0,34 -34,0 z M 68,102 l 34,0 0,34 -34,0 z M 272,102 l 34,0 0,34 -34,0 z M 340,102 l 34,0 0,34 -34,0 z M 408,102 l 34,0 0,34 -34,0 z M 510,102 l 34,0 0,34 -34,0 z M 544,102 l 34,0 0,34 -34,0 z M 578,102 l 34,0 0,34 -34,0 z M 612,102 l 34,0 0,34 -34,0 z M 646,102 l 34,0 0,34 -34,0 z M 680,102 l 34,0 0,34 -34,0 z M 748,102 l 34,0 0,34 -34,0 z M 816,102 l 34,0 0,34 -34,0 z M 1020,102 l 34,0 0,34 -34,0 z M 68,136 l 34,0 0,34 -34,0 z M 136,136 l 34,0 0,34 -34,0 z M 170,136 l 34,0 0,34 -34,0 z M 204,136 l 34,0 0,34 -34,0 z M 272,136 l 34,0 0,34 -34,0 z M 476,136 l 34,0 0,34 -34,0 z M 510,136 l 34,0 0,34 -34,0 z M 578,136 l 34,0 0,34 -34,0 z M 680,136 l 34,0 0,34 -34,0 z M 748,136 l 34,0 0,34 -34,0 z M 816,136 l 34,0 0,34 -34,0 z M 884,136 l 34,0 0,34 -34,0 z M 918,136 l 34,0 0,34 -34,0 z M 952,136 l 34,0 0,34 -34,0 z M 1020,136 l 34,0 0,34 -34,0 z M 68,170 l 34,0 0,34 -34,0 z M 136,170 l 34,0 0,34 -34,0 z M 170,170 l 34,0 0,34 -34,0 z M 204,170 l 34,0 0,34 -34,0 z M 272,170 l 34,0 0,34 -34,0 z M 340,170 l 34,0 0,34 -34,0 z M 374,170 l 34,0 0,34 -34,0 z M 408,170 l 34,0 0,34 -34,0 z M 476,170 l 34,0 0,34 -34,0 z M 544,170 l 34,0 0,34 -34,0 z M 578,170 l 34,0 0,34 -34,0 z M 646,170 l 34,0 0,34 -34,0 z M 748,170 l 34,0 0,34 -34,0 z M 816,170 l 34,0 0,34 -34,0 z M 884,170 l 34,0 0,34 -34,0 z M 918,170 l 34,0 0,34 -34,0 z M 952,170 l 34,0 0,34 -34,0 z M 1020,170 l 34,0 0,34 -34,0 z M 68,204 l 34,0 0,34 -34,0 z M 136,204 l 34,0 0,34 -34,0 z M 170,204 l 34,0 0,34 -34,0 z M 204,204 l 34,0 0,34 -34,0 z M 272,204 l 34,0 0,34 -34,0 z M 374,204 l 34,0 0,34 -34,0 z M 578,204 l 34,0 0,34 -34,0 z M 612,204 l 34,0 0,34 -34,0 z M 680,204 l 34,0 0,34 -34,0 z M 714,204 l 34,0 0,34 -34,0 z M 748,204 l 34,0 0,34 -34,0 z M 816,204 l 34,0 0,34 -34,0 z M 884,204 l 34,0 0,34 -34,0 z M 918,204 l 34,0 0,34 -34,0 z M 952,204 l 34,0 0,34 -34,0 z M 1020,204 l 34,0 0,34 -34,0 z M 68,238 l 34,0 0,34 -34,0 z M 272,238 l 34,0 0,34 -34,0 z M 340,238 l 34,0 0,34 -34,0 z M 374,238 l 34,0 0,34 -34,0 z M 442,238 l 34,0 0,34 -34,0 z M 476,238 l 34,0 0,34 -34,0 z M 646,238 l 34,0 0,34 -34,0 z M 816,238 l 34,0 0,34 -34,0 z M 1020,238 l 34,0 0,34 -34,0 z M 68,272 l 34,0 0,34 -34,0 z M 102,272 l 34,0 0,34 -34,0 z M 136,272 l 34,0 0,34 -34,0 z M 170,272 l 34,0 0,34 -34,0 z M 204,272 l 34,0 0,34 -34,0 z M 238,272 l 34,0 0,34 -34,0 z M 272,272 l 34,0 0,34 -34,0 z M 340,272 l 34,0 0,34 -34,0 z M 408,272 l 34,0 0,34 -34,0 z M 476,272 l 34,0 0,34 -34,0 z M 544,272 l 34,0 0,34 -34,0 z M 612,272 l 34,0 0,34 -34,0 z M 680,272 l 34,0 0,34 -34,0 z M 748,272 l 34,0 0,34 -34,0 z M 816,272 l 34,0 0,34 -34,0 z M 850,272 l 34,0 0,34 -34,0 z M 884,272 l 34,0 0,34 -34,0 z M 918,272 l 34,0 0,34 -34,0 z M 952,272 l 34,0 0,34 -34,0 z M 986,272 l 34,0 0,34 -34,0 z M 1020,272 l 34,0 0,34 -34,0 z M 374,306 l 34,0 0,34 -34,0 z M 408,306 l 34,0 0,34 -34,0 z M 442,306 l 34,0 0,34 -34,0 z M 544,306 l 34,0 0,34 -34,0 z M 612,306 l 34,0 0,34 -34,0 z M 748,306 l 34,0 0,34 -34,0 z M 68,340 l 34,0 0,34 -34,0 z M 102,340 l 34,0 0,34 -34,0 z M 136,340 l 34,0 0,34 -34,0 z M 170,340 l 34,0 0,34 -34,0 z M 204,340 l 34,0 0,34 -34,0 z M 272,340 l 34,0 0,34 -34,0 z M 306,340 l 34,0 0,34 -34,0 z M 340,340 l 34,0 0,34 -34,0 z M 374,340 l 34,0 0,34 -34,0 z M 442,340 l 34,0 0,34 -34,0 z M 646,340 l 34,0 0,34 -34,0 z M 782,340 l 34,0 0,34 -34,0 z M 850,340 l 34,0 0,34 -34,0 z M 918,340 l 34,0 0,34 -34,0 z M 986,340 l 34,0 0,34 -34,0 z M 136,374 l 34,0 0,34 -34,0 z M 340,374 l 34,0 0,34 -34,0 z M 408,374 l 34,0 0,34 -34,0 z M 476,374 l 34,0 0,34 -34,0 z M 510,374 l 34,0 0,34 -34,0 z M 544,374 l 34,0 0,34 -34,0 z M 578,374 l 34,0 0,34 -34,0 z M 646,374 l 34,0 0,34 -34,0 z M 680,374 l 34,0 0,34 -34,0 z M 714,374 l 34,0 0,34 -34,0 z M 748,374 l 34,0 0,34 -34,0 z M 816,374 l 34,0 0,34 -34,0 z M 850,374 l 34,0 0,34 -34,0 z M 884,374 l 34,0 0,34 -34,0 z M 1020,374 l 34,0 0,34 -34,0 z M 68,408 l 34,0 0,34 -34,0 z M 136,408 l 34,0 0,34 -34,0 z M 272,408 l 34,0 0,34 -34,0 z M 306,408 l 34,0 0,34 -34,0 z M 408,408 l 34,0 0,34 -34,0 z M 510,408 l 34,0 0,34 -34,0 z M 544,408 l 34,0 0,34 -34,0 z M 578,408 l 34,0 0,34 -34,0 z M 612,408 l 34,0 0,34 -34,0 z M 646,408 l 34,0 0,34 -34,0 z M 748,408 l 34,0 0,34 -34,0 z M 782,408 l 34,0 0,34 -34,0 z M 102,442 l 34,0 0,34 -34,0 z M 136,442 l 34,0 0,34 -34,0 z M 204,442 l 34,0 0,34 -34,0 z M 340,442 l 34,0 0,34 -34,0 z M 476,442 l 34,0 0,34 -34,0 z M 510,442 l 34,0 0,34 -34,0 z M 612,442 l 34,0 0,34 -34,0 z M 782,442 l 34,0 0,34 -34,0 z M 850,442 l 34,0 0,34 -34,0 z M 918,442 l 34,0 0,34 -34,0 z M 986,442 l 34,0 0,34 -34,0 z M 68,476 l 34,0 0,34 -34,0 z M 102,476 l 34,0 0,34 -34,0 z M 136,476 l 34,0 0,34 -34,0 z M 272,476 l 34,0 0,34 -34,0 z M 306,476 l 34,0 0,34 -34,0 z M 340,476 l 34,0 0,34 -34,0 z M 374,476 l 34,0 0,34 -34,0 z M 408,476 l 34,0 0,34 -34,0 z M 476,476 l 34,0 0,34 -34,0 z M 544,476 l 34,0 0,34 -34,0 z M 646,476 l 34,0 0,34 -34,0 z M 714,476 l 34,0 0,34 -34,0 z M 748,476 l 34,0 0,34 -34,0 z M 918,476 l 34,0 0,34 -34,0 z M 952,476 l 34,0 0,34 -34,0 z M 102,510 l 34,0 0,34 -34,0 z M 170,510 l 34,0 0,34 -34,0 z M 238,510 l 34,0 0,34 -34,0 z M 340,510 l 34,0 0,34 -34,0 z M 374,510 l 34,0 0,34 -34,0 z M 714,510 l 34,0 0,34 -34,0 z M 748,510 l 34,0 0,34 -34,0 z M 782,510 l 34,0 0,34 -34,0 z M 816,510 l 34,0 0,34 -34,0 z M 884,510 l 34,0 0,34 -34,0 z M 1020,510 l 34,0 0,34 -34,0 z M 102,544 l 34,0 0,34 -34,0 z M 170,544 l 34,0 0,34 -34,0 z M 204,544 l 34,0 0,34 -34,0 z M 238,544 l 34,0 0,34 -34,0 z M 272,544 l 34,0 0,34 -34,0 z M 340,544 l 34,0 0,34 -34,0 z M 442,544 l 34,0 0,34 -34,0 z M 476,544 l 34,0 0,34 -34,0 z M 578,544 l 34,0 0,34 -34,0 z M 612,544 l 34,0 0,34 -34,0 z M 782,544 l 34,0 0,34 -34,0 z M 850,544 l 34,0 0,34 -34,0 z M 918,544 l 34,0 0,34 -34,0 z M 952,544 l 34,0 0,34 -34,0 z M 68,578 l 34,0 0,34 -34,0 z M 170,578 l 34,0 0,34 -34,0 z M 238,578 l 34,0 0,34 -34,0 z M 306,578 l 34,0 0,34 -34,0 z M 340,578 l 34,0 0,34 -34,0 z M 408,578 l 34,0 0,34 -34,0 z M 442,578 l 34,0 0,34 -34,0 z M 544,578 l 34,0 0,34 -34,0 z M 578,578 l 34,0 0,34 -34,0 z M 612,578 l 34,0 0,34 -34,0 z M 680,578 l 34,0 0,34 -34,0 z M 748,578 l 34,0 0,34 -34,0 z M 782,578 l 34,0 0,34 -34,0 z M 816,578 l 34,0 0,34 -34,0 z M 850,578 l 34,0 0,34 -34,0 z M 884,578 l 34,0 0,34 -34,0 z M 986,578 l 34,0 0,34 -34,0 z M 102,612 l 34,0 0,34 -34,0 z M 238,612 l 34,0 0,34 -34,0 z M 272,612 l 34,0 0,34 -34,0 z M 306,612 l 34,0 0,34 -34,0 z M 340,612 l 34,0 0,34 -34,0 z M 374,612 l 34,0 0,34 -34,0 z M 442,612 l 34,0 0,34 -34,0 z M 646,612 l 34,0 0,34 -34,0 z M 748,612 l 34,0 0,34 -34,0 z M 850,612 l 34,0 0,34 -34,0 z M 918,612 l 34,0 0,34 -34,0 z M 952,612 l 34,0 0,34 -34,0 z M 68,646 l 34,0 0,34 -34,0 z M 136,646 l 34,0 0,34 -34,0 z M 238,646 l 34,0 0,34 -34,0 z M 306,646 l 34,0 0,34 -34,0 z M 340,646 l 34,0 0,34 -34,0 z M 408,646 l 34,0 0,34 -34,0 z M 476,646 l 34,0 0,34 -34,0 z M 510,646 l 34,0 0,34 -34,0 z M 544,646 l 34,0 0,34 -34,0 z M 612,646 l 34,0 0,34 -34,0 z M 714,646 l 34,0 0,34 -34,0 z M 748,646 l 34,0 0,34 -34,0 z M 782,646 l 34,0 0,34 -34,0 z M 816,646 l 34,0 0,34 -34,0 z M 850,646 l 34,0 0,34 -34,0 z M 884,646 l 34,0 0,34 -34,0 z M 952,646 l 34,0 0,34 -34,0 z M 1020,646 l 34,0 0,34 -34,0 z M 68,680 l 34,0 0,34 -34,0 z M 170,680 l 34,0 0,34 -34,0 z M 204,680 l 34,0 0,34 -34,0 z M 238,680 l 34,0 0,34 -34,0 z M 272,680 l 34,0 0,34 -34,0 z M 408,680 l 34,0 0,34 -34,0 z M 510,680 l 34,0 0,34 -34,0 z M 544,680 l 34,0 0,34 -34,0 z M 578,680 l 34,0 0,34 -34,0 z M 612,680 l 34,0 0,34 -34,0 z M 646,680 l 34,0 0,34 -34,0 z M 680,680 l 34,0 0,34 -34,0 z M 748,680 l 34,0 0,34 -34,0 z M 850,680 l 34,0 0,34 -34,0 z M 952,680 l 34,0 0,34 -34,0 z M 68,714 l 34,0 0,34 -34,0 z M 136,714 l 34,0 0,34 -34,0 z M 170,714 l 34,0 0,34 -34,0 z M 204,714 l 34,0 0,34 -34,0 z M 238,714 l 34,0 0,34 -34,0 z M 340,714 l 34,0 0,34 -34,0 z M 374,714 l 34,0 0,34 -34,0 z M 408,714 l 34,0 0,34 -34,0 z M 476,714 l 34,0 0,34 -34,0 z M 510,714 l 34,0 0,34 -34,0 z M 612,714 l 34,0 0,34 -34,0 z M 850,714 l 34,0 0,34 -34,0 z M 884,714 l 34,0 0,34 -34,0 z M 986,714 l 34,0 0,34 -34,0 z M 68,748 l 34,0 0,34 -34,0 z M 136,748 l 34,0 0,34 -34,0 z M 170,748 l 34,0 0,34 -34,0 z M 238,748 l 34,0 0,34 -34,0 z M 272,748 l 34,0 0,34 -34,0 z M 306,748 l 34,0 0,34 -34,0 z M 340,748 l 34,0 0,34 -34,0 z M 374,748 l 34,0 0,34 -34,0 z M 408,748 l 34,0 0,34 -34,0 z M 476,748 l 34,0 0,34 -34,0 z M 544,748 l 34,0 0,34 -34,0 z M 646,748 l 34,0 0,34 -34,0 z M 714,748 l 34,0 0,34 -34,0 z M 748,748 l 34,0 0,34 -34,0 z M 782,748 l 34,0 0,34 -34,0 z M 816,748 l 34,0 0,34 -34,0 z M 850,748 l 34,0 0,34 -34,0 z M 884,748 l 34,0 0,34 -34,0 z M 952,748 l 34,0 0,34 -34,0 z M 986,748 l 34,0 0,34 -34,0 z M 1020,748 l 34,0 0,34 -34,0 z M 340,782 l 34,0 0,34 -34,0 z M 612,782 l 34,0 0,34 -34,0 z M 680,782 l 34,0 0,34 -34,0 z M 748,782 l 34,0 0,34 -34,0 z M 884,782 l 34,0 0,34 -34,0 z M 918,782 l 34,0 0,34 -34,0 z M 952,782 l 34,0 0,34 -34,0 z M 986,782 l 34,0 0,34 -34,0 z M 1020,782 l 34,0 0,34 -34,0 z M 68,816 l 34,0 0,34 -34,0 z M 102,816 l 34,0 0,34 -34,0 z M 136,816 l 34,0 0,34 -34,0 z M 170,816 l 34,0 0,34 -34,0 z M 204,816 l 34,0 0,34 -34,0 z M 238,816 l 34,0 0,34 -34,0 z M 272,816 l 34,0 0,34 -34,0 z M 340,816 l 34,0 0,34 -34,0 z M 408,816 l 34,0 0,34 -34,0 z M 442,816 l 34,0 0,34 -34,0 z M 476,816 l 34,0 0,34 -34,0 z M 578,816 l 34,0 0,34 -34,0 z M 612,816 l 34,0 0,34 -34,0 z M 680,816 l 34,0 0,34 -34,0 z M 714,816 l 34,0 0,34 -34,0 z M 748,816 l 34,0 0,34 -34,0 z M 816,816 l 34,0 0,34 -34,0 z M 884,816 l 34,0 0,34 -34,0 z M 918,816 l 34,0 0,34 -34,0 z M 952,816 l 34,0 0,34 -34,0 z M 68,850 l 34,0 0,34 -34,0 z M 272,850 l 34,0 0,34 -34,0 z M 374,850 l 34,0 0,34 -34,0 z M 442,850 l 34,0 0,34 -34,0 z M 544,850 l 34,0 0,34 -34,0 z M 714,850 l 34,0 0,34 -34,0 z M 748,850 l 34,0 0,34 -34,0 z M 884,850 l 34,0 0,34 -34,0 z M 986,850 l 34,0 0,34 -34,0 z M 1020,850 l 34,0 0,34 -34,0 z M 68,884 l 34,0 0,34 -34,0 z M 136,884 l 34,0 0,34 -34,0 z M 170,884 l 34,0 0,34 -34,0 z M 204,884 l 34,0 0,34 -34,0 z M 272,884 l 34,0 0,34 -34,0 z M 340,884 l 34,0 0,34 -34,0 z M 374,884 l 34,0 0,34 -34,0 z M 408,884 l 34,0 0,34 -34,0 z M 442,884 l 34,0 0,34 -34,0 z M 578,884 l 34,0 0,34 -34,0 z M 646,884 l 34,0 0,34 -34,0 z M 748,884 l 34,0 0,34 -34,0 z M 782,884 l 34,0 0,34 -34,0 z M 816,884 l 34,0 0,34 -34,0 z M 850,884 l 34,0 0,34 -34,0 z M 884,884 l 34,0 0,34 -34,0 z M 952,884 l 34,0 0,34 -34,0 z M 986,884 l 34,0 0,34 -34,0 z M 68,918 l 34,0 0,34 -34,0 z M 136,918 l 34,0 0,34 -34,0 z M 170,918 l 34,0 0,34 -34,0 z M 204,918 l 34,0 0,34 -34,0 z M 272,918 l 34,0 0,34 -34,0 z M 340,918 l 34,0 0,34 -34,0 z M 374,918 l 34,0 0,34 -34,0 z M 476,918 l 34,0 0,34 -34,0 z M 510,918 l 34,0 0,34 -34,0 z M 544,918 l 34,0 0,34 -34,0 z M 612,918 l 34,0 0,34 -34,0 z M 714,918 l 34,0 0,34 -34,0 z M 748,918 l 34,0 0,34 -34,0 z M 850,918 l 34,0 0,34 -34,0 z M 918,918 l 34,0 0,34 -34,0 z M 952,918 l 34,0 0,34 -34,0 z M 986,918 l 34,0 0,34 -34,0 z M 1020,918 l 34,0 0,34 -34,0 z M 68,952 l 34,0 0,34 -34,0 z M 136,952 l 34,0 0,34 -34,0 z M 170,952 l 34,0 0,34 -34,0 z M 204,952 l 34,0 0,34 -34,0 z M 272,952 l 34,0 0,34 -34,0 z M 340,952 l 34,0 0,34 -34,0 z M 408,952 l 34,0 0,34 -34,0 z M 510,952 l 34,0 0,34 -34,0 z M 544,952 l 34,0 0,34 -34,0 z M 578,952 l 34,0 0,34 -34,0 z M 646,952 l 34,0 0,34 -34,0 z M 782,952 l 34,0 0,34 -34,0 z M 816,952 l 34,0 0,34 -34,0 z M 850,952 l 34,0 0,34 -34,0 z M 884,952 l 34,0 0,34 -34,0 z M 918,952 l 34,0 0,34 -34,0 z M 952,952 l 34,0 0,34 -34,0 z M 986,952 l 34,0 0,34 -34,0 z M 68,986 l 34,0 0,34 -34,0 z M 272,986 l 34,0 0,34 -34,0 z M 340,986 l 34,0 0,34 -34,0 z M 374,986 l 34,0 0,34 -34,0 z M 408,986 l 34,0 0,34 -34,0 z M 476,986 l 34,0 0,34 -34,0 z M 510,986 l 34,0 0,34 -34,0 z M 612,986 l 34,0 0,34 -34,0 z M 680,986 l 34,0 0,34 -34,0 z M 748,986 l 34,0 0,34 -34,0 z M 816,986 l 34,0 0,34 -34,0 z M 850,986 l 34,0 0,34 -34,0 z M 918,986 l 34,0 0,34 -34,0 z M 986,986 l 34,0 0,34 -34,0 z M 68,1020 l 34,0 0,34 -34,0 z M 102,1020 l 34,0 0,34 -34,0 z M 136,1020 l 34,0 0,34 -34,0 z M 170,1020 l 34,0 0,34 -34,0 z M 204,1020 l 34,0 0,34 -34,0 z M 238,1020 l 34,0 0,34 -34,0 z M 272,1020 l 34,0 0,34 -34,0 z M 340,1020 l 34,0 0,34 -34,0 z M 408,1020 l 34,0 0,34 -34,0 z M 476,1020 l 34,0 0,34 -34,0 z M 544,1020 l 34,0 0,34 -34,0 z M 646,1020 l 34,0 0,34 -34,0 z M 680,1020 l 34,0 0,34 -34,0 z M 714,1020 l 34,0 0,34 -34,0 z M 782,1020 l 34,0 0,34 -34,0 z M 850,1020 l 34,0 0,34 -34,0 z M 884,1020 l 34,0 0,34 -34,0 z M 918,1020 l 34,0 0,34 -34,0 z M 952,1020 l 34,0 0,34 -34,0 z " />
	</g>
</svg>
